<?xml version="1.0" standalone="no"?>
<!DOCTYPE svg PUBLIC "-//W3C//DTD SVG 20010904//EN"
 "http://www.w3.org/TR/2001/REC-SVG-20010904/DTD/svg10.dtd">
<svg version="1.0" xmlns="http://www.w3.org/2000/svg"
 width="360.000000pt" height="360.000000pt" viewBox="0 0 360.000000 360.000000"
 preserveAspectRatio="xMidYMid meet">
<metadata>
Created by potrace 1.14, written by Peter Selinger 2001-2017
</metadata>
<g transform="translate(0.000000,360.000000) scale(0.100000,-0.100000)"
fill="#000000" stroke="none">
<path d="M1529 3286 c-2 -2 -24 -7 -49 -11 -176 -25 -413 -122 -585 -240 -316
-216 -522 -520 -622 -920 -24 -96 -30 -486 -8 -600 86 -463 389 -863 807
-1069 151 -74 312 -126 438 -142 19 -2 58 -8 85 -12 103 -16 332 -5 453 23 12
3 32 7 43 10 138 30 304 98 441 181 35 21 68 42 73 46 194 149 294 252 400
413 118 178 187 356 230 585 24 126 24 349 0 485 -5 26 -26 130 -30 145 -23
91 -89 252 -142 345 -217 386 -585 654 -1034 751 -37 8 -493 17 -500 10z"/>
</g>
</svg>
